<!--<svg aria-hidden="true" viewBox="0 0 448 512">
<path d="M416 208H272V64c0-17.67-14.33-32-32-32h-32c-17.67 0-32 14.33-32 32v144H32c-17.67 0-32 14.33-32 32v32c0 17.67 14.33 32 32 32h144v144c0 17.67 14.33 32 32 32h32c17.67 0 32-14.33 32-32V304h144c17.67 0 32-14.33 32-32v-32c0-17.67-14.33-32-32-32z" class="">
</path>
</svg>-->

<svg viewBox="0 0 16 16" xmlns="http://www.w3.org/2000/svg" fill="none">
<g id="SVGRepo_bgCarrier" stroke-width="0">
</g>
<g id="SVGRepo_tracerCarrier" stroke-linecap="round" stroke-linejoin="round">
</g>
<g id="SVGRepo_iconCarrier">
<g fill="#000000">
<path d="M1 8a6 6 0 018.514-5.45.75.75 0 01-.629 1.363 4.5 4.5 0 100 8.175.75.75 0 11.63 1.361A6 6 0 011 8z"></path>
<path d="M11.245 4.695a.75.75 0 00-.05 1.06l1.36 1.495H6.75a.75.75 0 000 1.5h5.805l-1.36 1.495a.75.75 0 001.11 1.01l2.5-2.75a.748.748 0 00-.002-1.012l-2.498-2.748a.75.75 0 00-1.06-.05z"></path> 
</g> </g></svg>
